<svg xmlns="http://www.w3.org/2000/svg" xmlns:xlink="http://www.w3.org/1999/xlink" viewBox="0 0 818 204.5"><defs><style>.cls-1{fill:url(#linear-gradient);}.cls-2{fill:url(#linear-gradient-2);}.cls-3{fill:url(#linear-gradient-3);}</style><linearGradient id="linear-gradient" x1="408" y1="204.5" x2="408" gradientUnits="userSpaceOnUse"><stop offset="0" stop-color="#e6e6e6" stop-opacity="0"/><stop offset="0.05" stop-color="#ebe9d7" stop-opacity="0.19"/><stop offset="0.1" stop-color="#efebc9" stop-opacity="0.36"/><stop offset="0.15" stop-color="#f3edbc" stop-opacity="0.51"/><stop offset="0.21" stop-color="#f6efb1" stop-opacity="0.64"/><stop offset="0.28" stop-color="#f9f1a8" stop-opacity="0.75"/><stop offset="0.35" stop-color="#fbf2a1" stop-opacity="0.85"/><stop offset="0.44" stop-color="#fdf39b" stop-opacity="0.92"/><stop offset="0.54" stop-color="#fef397" stop-opacity="0.96"/><stop offset="0.68" stop-color="#fff495" stop-opacity="0.99"/><stop offset="1" stop-color="#fff494"/></linearGradient><linearGradient id="linear-gradient-2" x1="102" y1="204.5" x2="102" gradientUnits="userSpaceOnUse"><stop offset="0" stop-color="#e6e6e6" stop-opacity="0"/><stop offset="0.04" stop-color="#e8e5cc" stop-opacity="0.14"/><stop offset="0.09" stop-color="#eae4ab" stop-opacity="0.32"/><stop offset="0.14" stop-color="#ece38d" stop-opacity="0.48"/><stop offset="0.2" stop-color="#ede274" stop-opacity="0.62"/><stop offset="0.27" stop-color="#efe15e" stop-opacity="0.74"/><stop offset="0.35" stop-color="#f0e04d" stop-opacity="0.84"/><stop offset="0.43" stop-color="#f1e03f" stop-opacity="0.91"/><stop offset="0.54" stop-color="#f2df36" stop-opacity="0.96"/><stop offset="0.67" stop-color="#f2df31" stop-opacity="0.99"/><stop offset="1" stop-color="#f2df2f"/></linearGradient><linearGradient id="linear-gradient-3" x1="715.5" x2="715.5" xlink:href="#linear-gradient-2"/></defs><g id="Layer_2" data-name="Layer 2"><g id="Layer_1-2" data-name="Layer 1"><path class="cls-1" d="M612.5,0h-409V112.27c.3-3,.47-6.13.49-9.25h0a102.24,102.24,0,0,0,204.48,0h0a102.24,102.24,0,0,0,204,9.25Z"/><path class="cls-2" d="M204,0H0V103H0a102.24,102.24,0,0,0,204,9.25Z"/><path class="cls-3" d="M613,0V112.27c.3-3,.47-6.13.49-9.25h0A102.24,102.24,0,0,0,818,103h0V0Z"/></g></g></svg>